<svg width="30" height="30" fill="none" xmlns="http://www.w3.org/2000/svg"><g clip-path="url(#clip0)"><path d="M17.026 29.941h-4.814a1.458 1.458 0 01-1.458-1.455V17.65H7.945a1.458 1.458 0 01-1.458-1.455V11.55c0-.802.654-1.455 1.458-1.455h2.809V7.771c0-2.306.725-4.267 2.097-5.672C14.23.687 16.156-.06 18.421-.06l3.672.006a1.459 1.459 0 011.455 1.456v4.31c0 .803-.654 1.456-1.458 1.456l-2.471.001c-.754 0-.946.15-.987.197-.068.077-.148.293-.148.892v1.837h3.42a1.46 1.46 0 011.472 1.456l-.002 4.643c0 .802-.654 1.455-1.458 1.455h-3.432v10.836c0 .803-.655 1.455-1.459 1.455zm-4.51-1.758h4.205v-11.32c0-.536.437-.972.974-.972h3.917l.002-4.036h-3.92a.973.973 0 01-.973-.972V8.26c0-.687.07-1.469.59-2.056.628-.71 1.617-.792 2.307-.792h2.168V1.705L18.42 1.7c-3.641 0-5.904 2.326-5.904 6.071v3.112a.974.974 0 01-.973.972H8.249v4.036h3.294c.536 0 .973.436.973.972v11.32zm9.573-26.477z" fill="#fff"/></g><defs><clipPath id="clip0"><path fill="#fff" d="M0 0h30v30H0z"/></clipPath></defs></svg>