<svg width="30" height="30" fill="none" xmlns="http://www.w3.org/2000/svg"><g clip-path="url(#clip0)"><path d="M11.415 27.405c-5.007 0-8.964-.875-10.858-2.4l-.036-.03-.034-.033c-.45-.45-.597-1.04-.404-1.62l.018-.047a1.57 1.57 0 011.43-.985c1.282-.022 2.402-.174 3.42-.47-1.623-.755-2.75-2.061-3.42-3.952a1.4 1.4 0 01.489-1.633 1.43 1.43 0 01.426-.218c-.901-1.04-1.567-2.224-1.94-3.477l-.012-.039-.008-.04c-.126-.633.157-1.284.676-1.564.217-.125.454-.19.691-.196a7.314 7.314 0 01-.552-1.686c-.306-1.577-.054-3.159.75-4.7l.187-.372a1.04 1.04 0 011.661-.27l.34.34c2.677 2.807 5.076 4.14 9.223 5.05a7.348 7.348 0 011.984-4.236c1.321-1.385 3.086-2.163 4.968-2.19h.012c1.374 0 3.078.785 4.108 1.338.884-.29 1.95-.737 3.054-1.211a1.395 1.395 0 011.561.275c.399.398.51.96.298 1.506-.08.224-.172.444-.273.658.151.07.29.164.407.28.353.354.5.908.375 1.41l-.014.049c-.423 1.364-1.236 2.476-2.312 3.173-.18 9.568-7.384 17.29-16.215 17.29zm-9.17-3.38c1.784 1.01 5.184 1.62 9.17 1.62 3.833 0 7.45-1.645 10.184-4.633C24.356 18 25.874 14 25.874 9.75V9.7c0-.385.212-.737.553-.917.692-.367 1.252-.991 1.617-1.79a1.033 1.033 0 01-.992-.405 1.033 1.033 0 01-.008-1.228c.145-.2.276-.406.392-.62-.954.4-1.86.76-2.647.998a1.125 1.125 0 01-.865-.093c-1.4-.78-2.705-1.247-3.492-1.249-2.902.044-5.261 2.53-5.261 5.543a1.035 1.035 0 01-1.239 1.018C9.15 10.016 6.317 8.604 3.37 5.643c-.422 1.012-.537 2.03-.342 3.037.198 1.02.724 2.041 1.523 2.954.304.347.344.842.1 1.233a1.03 1.03 0 01-1.147.454 4.749 4.749 0 01-.967-.372c.615 1.337 1.674 2.573 3.005 3.485a1.039 1.039 0 01-.664 1.89 4.665 4.665 0 01-1.377-.298c.746 1.52 1.939 2.356 3.775 2.676a1.038 1.038 0 01.309 1.939c-1.566.83-3.277 1.275-5.34 1.385z" fill="#fff"/></g><defs><clipPath id="clip0"><path fill="#fff" d="M0 0h30v30H0z"/></clipPath></defs></svg>