<svg width="120" height="120" viewBox="0 0 120 120" fill="none" xmlns="http://www.w3.org/2000/svg">
<g filter="url(#filter0_d)">
<rect width="60" height="60" rx="10" transform="matrix(-1 0 0 1 90 20)" fill="white"/>
</g>
<path d="M76.0607 48.9393C76.6464 49.5251 76.6464 50.4749 76.0607 51.0607L66.5147 60.6066C65.9289 61.1924 64.9792 61.1924 64.3934 60.6066C63.8076 60.0208 63.8076 59.0711 64.3934 58.4853L72.8787 50L64.3934 41.5147C63.8076 40.9289 63.8076 39.9792 64.3934 39.3934C64.9792 38.8076 65.9289 38.8076 66.5147 39.3934L76.0607 48.9393ZM45 48.5L75 48.5V51.5L45 51.5V48.5Z" fill="#0093E6"/>
<defs>
<filter id="filter0_d" x="0" y="0" width="120" height="120" filterUnits="userSpaceOnUse" color-interpolation-filters="sRGB">
<feFlood flood-opacity="0" result="BackgroundImageFix"/>
<feColorMatrix in="SourceAlpha" type="matrix" values="0 0 0 0 0 0 0 0 0 0 0 0 0 0 0 0 0 0 127 0"/>
<feOffset dy="10"/>
<feGaussianBlur stdDeviation="15"/>
<feColorMatrix type="matrix" values="0 0 0 0 0 0 0 0 0 0 0 0 0 0 0 0 0 0 0.06 0"/>
<feBlend mode="normal" in2="BackgroundImageFix" result="effect1_dropShadow"/>
<feBlend mode="normal" in="SourceGraphic" in2="effect1_dropShadow" result="shape"/>
</filter>
</defs>
</svg>
